<?xml version="1.0" encoding="ISO-8859-1"?>
<!DOCTYPE svg SYSTEM "svg-19991203.dtd">
<svg xmlns:svg="http://www.w3.org/2000/svg" height="375px" width="575px">
<text y="25" x="10" style="font-size:10"/>
<path d="M 40 340 L 540 340" fill="none" stroke="black" stroke-width="1" id="generation"/>
<text font-family="Verdana" font-size="15" fill="blue">
<textPath xlink:href="#generation" startOffset="40%" dy="30">
    Generation</textPath>
</text>
<path d="M 140 345 L 140 335" fill="none" stroke="black" stroke-width="1"/>
<path d="M 240 345 L 240 335" fill="none" stroke="black" stroke-width="1"/>
<path d="M 340 345 L 340 335" fill="none" stroke="black" stroke-width="1"/>
<path d="M 440 345 L 440 335" fill="none" stroke="black" stroke-width="1"/>
<path d="M 540 345 L 540 335" fill="none" stroke="black" stroke-width="1"/>
<text font-family="Verdana" font-size="11" fill="black" y="355" x="132">30</text>
<text font-family="Verdana" font-size="11" fill="black" y="355" x="232">60</text>
<text font-family="Verdana" font-size="11" fill="black" y="355" x="332">90</text>
<text font-family="Verdana" font-size="11" fill="black" y="355" x="432">120</text>
<text font-family="Verdana" font-size="11" fill="black" y="355" x="532">150</text>
<path d="M 40 340 L 40 40" fill="none" stroke="black" stroke-width="1" id="complexity"/>
<text font-family="Verdana" font-size="15" fill="blue">
<textPath xlink:href="#complexity" startOffset="40%" dy="-25">Number of Genes</textPath>
</text>
<path d="M 40 40 L 540 40" fill="none" stroke="green" stroke-width="0.5" id="complexity1"/>
<text font-family="Verdana" font-size="9" fill-opacity="1.0" fill="green">
<textPath xlink:href="#complexity1" startOffset="90%" dy="8">55</textPath>
</text>
<path d="M 40 100 L 540 100" fill="none" stroke="green" stroke-width="0.5" id="complexity2"/>
<text font-family="Verdana" font-size="9" fill-opacity="1.0" fill="green">
<textPath xlink:href="#complexity2" startOffset="70%" dy="8">45.6</textPath>
</text>
<path d="M 40 160 L 540 160" fill="none" stroke="green" stroke-width="0.5" id="complexity3"/>
<text font-family="Verdana" font-size="9" fill-opacity="1.0" fill="green">
<textPath xlink:href="#complexity3" startOffset="50%" dy="8">36.2</textPath>
</text>
<path d="M 40 220 L 540 220" fill="none" stroke="green" stroke-width="0.5" id="complexity4"/>
<text font-family="Verdana" font-size="9" fill-opacity="1.0" fill="green">
<textPath xlink:href="#complexity4" startOffset="30%" dy="8">26.8</textPath>
</text>
<path d="M 40 280 L 540 280" fill="none" stroke="green" stroke-width="0.5" id="complexity5"/>
<text font-family="Verdana" font-size="9" fill-opacity="1.0" fill="green">
<textPath xlink:href="#complexity5" startOffset="10%" dy="8">17.4</textPath>
</text>
<text font-family="Verdana" font-size="9" fill-opacity="1.0" fill="green">
<textPath xlink:href="#generation" startOffset="0%" dy="8">8</textPath>
</text>
<path fill="red" id="0" d="M 38 184.8085106382979 L 40 180.8085106382979 L 42 184.8085106382979 z"/>
<circle fill="black" cy="186.8085106382979" cx="40" r="1" id="0"/>
<path d="M 40 186.8085106382979 L 40 186.8085106382979" fill="none" stroke="blue" stroke-width="0.5"/>
<path fill="red" id="1" d="M 41.333333333333336 172.04255319148936 L 43.333333333333336 168.04255319148936 L 45.333333333333336 172.04255319148936 z"/>
<circle fill="black" cy="186.10638297872342" cx="43.333333333333336" r="1" id="1"/>
<path d="M 43.333333333333336 231.48936170212767 L 43.333333333333336 142.12765957446808" fill="none" stroke="blue" stroke-width="0.5"/>
<path fill="red" id="2" d="M 44.666666666666664 172.04255319148936 L 46.666666666666664 168.04255319148936 L 48.666666666666664 172.04255319148936 z"/>
<circle fill="black" cy="182.531914893617" cx="46.666666666666664" r="1" id="2"/>
<path d="M 46.666666666666664 218.72340425531917 L 46.666666666666664 154.8936170212766" fill="none" stroke="blue" stroke-width="0.5"/>
<path fill="red" id="3" d="M 48 191.19148936170214 L 50 187.19148936170214 L 52 191.19148936170214 z"/>
<circle fill="black" cy="184.31914893617022" cx="50" r="1" id="3"/>
<path d="M 50 231.48936170212767 L 50 154.8936170212766" fill="none" stroke="blue" stroke-width="0.5"/>
<path fill="red" id="4" d="M 51.333333333333336 191.19148936170214 L 53.333333333333336 187.19148936170214 L 55.333333333333336 191.19148936170214 z"/>
<circle fill="black" cy="185.78723404255322" cx="53.333333333333336" r="1" id="4"/>
<path d="M 53.333333333333336 225.1063829787234 L 53.333333333333336 142.12765957446808" fill="none" stroke="blue" stroke-width="0.5"/>
<path fill="red" id="5" d="M 54.66666666666667 165.6595744680851 L 56.66666666666667 161.6595744680851 L 58.66666666666667 165.6595744680851 z"/>
<circle fill="black" cy="184.19148936170214" cx="56.66666666666667" r="1" id="5"/>
<path d="M 56.66666666666667 225.1063829787234 L 56.66666666666667 142.12765957446808" fill="none" stroke="blue" stroke-width="0.5"/>
<path fill="red" id="6" d="M 58 165.6595744680851 L 60 161.6595744680851 L 62 165.6595744680851 z"/>
<circle fill="black" cy="180.93617021276594" cx="60" r="1" id="6"/>
<path d="M 60 225.1063829787234 L 60 129.36170212765958" fill="none" stroke="blue" stroke-width="0.5"/>
<path fill="red" id="7" d="M 61.333333333333336 165.6595744680851 L 63.333333333333336 161.6595744680851 L 65.33333333333334 165.6595744680851 z"/>
<circle fill="black" cy="181.82978723404256" cx="63.333333333333336" r="1" id="7"/>
<path d="M 63.333333333333336 231.48936170212767 L 63.333333333333336 135.74468085106383" fill="none" stroke="blue" stroke-width="0.5"/>
<path fill="red" id="8" d="M 64.66666666666667 165.6595744680851 L 66.66666666666667 161.6595744680851 L 68.66666666666667 165.6595744680851 z"/>
<circle fill="black" cy="184.95744680851064" cx="66.66666666666667" r="1" id="8"/>
<path d="M 66.66666666666667 237.87234042553192 L 66.66666666666667 142.12765957446808" fill="none" stroke="blue" stroke-width="0.5"/>
<path fill="red" id="9" d="M 68 165.6595744680851 L 70 161.6595744680851 L 72 165.6595744680851 z"/>
<circle fill="black" cy="179.85106382978722" cx="70" r="1" id="9"/>
<path d="M 70 212.3404255319149 L 70 122.97872340425533" fill="none" stroke="blue" stroke-width="0.5"/>
<path fill="red" id="10" d="M 71.33333333333334 165.6595744680851 L 73.33333333333334 161.6595744680851 L 75.33333333333334 165.6595744680851 z"/>
<circle fill="black" cy="185.34042553191492" cx="73.33333333333334" r="1" id="10"/>
<path d="M 73.33333333333334 250.63829787234044 L 73.33333333333334 142.12765957446808" fill="none" stroke="blue" stroke-width="0.5"/>
<path fill="red" id="11" d="M 74.66666666666667 165.6595744680851 L 76.66666666666667 161.6595744680851 L 78.66666666666667 165.6595744680851 z"/>
<circle fill="black" cy="183.4255319148936" cx="76.66666666666667" r="1" id="11"/>
<path d="M 76.66666666666667 250.63829787234044 L 76.66666666666667 122.97872340425533" fill="none" stroke="blue" stroke-width="0.5"/>
<path fill="red" id="12" d="M 78 165.6595744680851 L 80 161.6595744680851 L 82 165.6595744680851 z"/>
<circle fill="black" cy="186.10638297872342" cx="80" r="1" id="12"/>
<path d="M 80 244.25531914893617 L 80 135.74468085106383" fill="none" stroke="blue" stroke-width="0.5"/>
<path fill="red" id="13" d="M 81.33333333333334 165.6595744680851 L 83.33333333333334 161.6595744680851 L 85.33333333333334 165.6595744680851 z"/>
<circle fill="black" cy="191.08510638297875" cx="83.33333333333334" r="1" id="13"/>
<path d="M 83.33333333333334 263.40425531914894 L 83.33333333333334 135.74468085106383" fill="none" stroke="blue" stroke-width="0.5"/>
<path fill="red" id="14" d="M 84.66666666666667 165.6595744680851 L 86.66666666666667 161.6595744680851 L 88.66666666666667 165.6595744680851 z"/>
<circle fill="black" cy="197.40425531914894" cx="86.66666666666667" r="1" id="14"/>
<path d="M 86.66666666666667 257.02127659574467 L 86.66666666666667 154.8936170212766" fill="none" stroke="blue" stroke-width="0.5"/>
<path fill="red" id="15" d="M 88 165.6595744680851 L 90 161.6595744680851 L 92 165.6595744680851 z"/>
<circle fill="black" cy="189.61702127659575" cx="90" r="1" id="15"/>
<path d="M 90 237.87234042553192 L 90 135.74468085106383" fill="none" stroke="blue" stroke-width="0.5"/>
<path fill="red" id="16" d="M 91.33333333333334 165.6595744680851 L 93.33333333333334 161.6595744680851 L 95.33333333333334 165.6595744680851 z"/>
<circle fill="black" cy="193.4468085106383" cx="93.33333333333334" r="1" id="16"/>
<path d="M 93.33333333333334 244.25531914893617 L 93.33333333333334 135.74468085106383" fill="none" stroke="blue" stroke-width="0.5"/>
<path fill="red" id="17" d="M 94.66666666666667 165.6595744680851 L 96.66666666666667 161.6595744680851 L 98.66666666666667 165.6595744680851 z"/>
<circle fill="black" cy="194.59574468085106" cx="96.66666666666667" r="1" id="17"/>
<path d="M 96.66666666666667 244.25531914893617 L 96.66666666666667 110.2127659574468" fill="none" stroke="blue" stroke-width="0.5"/>
<path fill="red" id="18" d="M 98 165.6595744680851 L 100 161.6595744680851 L 102 165.6595744680851 z"/>
<circle fill="black" cy="193.7659574468085" cx="100" r="1" id="18"/>
<path d="M 100 237.87234042553192 L 100 129.36170212765958" fill="none" stroke="blue" stroke-width="0.5"/>
<path fill="red" id="19" d="M 101.33333333333334 165.6595744680851 L 103.33333333333334 161.6595744680851 L 105.33333333333334 165.6595744680851 z"/>
<circle fill="black" cy="196.12765957446808" cx="103.33333333333334" r="1" id="19"/>
<path d="M 103.33333333333334 250.63829787234044 L 103.33333333333334 135.74468085106383" fill="none" stroke="blue" stroke-width="0.5"/>
<path fill="red" id="20" d="M 104.66666666666667 165.6595744680851 L 106.66666666666667 161.6595744680851 L 108.66666666666667 165.6595744680851 z"/>
<circle fill="black" cy="191.72340425531914" cx="106.66666666666667" r="1" id="20"/>
<path d="M 106.66666666666667 244.25531914893617 L 106.66666666666667 142.12765957446808" fill="none" stroke="blue" stroke-width="0.5"/>
<path fill="red" id="21" d="M 108 165.6595744680851 L 110 161.6595744680851 L 112 165.6595744680851 z"/>
<circle fill="black" cy="195.48936170212767" cx="110" r="1" id="21"/>
<path d="M 110 244.25531914893617 L 110 142.12765957446808" fill="none" stroke="blue" stroke-width="0.5"/>
<path fill="red" id="22" d="M 111.33333333333334 165.6595744680851 L 113.33333333333334 161.6595744680851 L 115.33333333333334 165.6595744680851 z"/>
<circle fill="black" cy="197.59574468085108" cx="113.33333333333334" r="1" id="22"/>
<path d="M 113.33333333333334 237.87234042553192 L 113.33333333333334 142.12765957446808" fill="none" stroke="blue" stroke-width="0.5"/>
<path fill="red" id="23" d="M 114.66666666666667 165.6595744680851 L 116.66666666666667 161.6595744680851 L 118.66666666666667 165.6595744680851 z"/>
<circle fill="black" cy="197.14893617021278" cx="116.66666666666667" r="1" id="23"/>
<path d="M 116.66666666666667 257.02127659574467 L 116.66666666666667 142.12765957446808" fill="none" stroke="blue" stroke-width="0.5"/>
<path fill="red" id="24" d="M 118 165.6595744680851 L 120 161.6595744680851 L 122 165.6595744680851 z"/>
<circle fill="black" cy="195.61702127659575" cx="120" r="1" id="24"/>
<path d="M 120 282.5531914893617 L 120 135.74468085106383" fill="none" stroke="blue" stroke-width="0.5"/>
<path fill="red" id="25" d="M 121.33333333333334 165.6595744680851 L 123.33333333333334 161.6595744680851 L 125.33333333333334 165.6595744680851 z"/>
<circle fill="black" cy="193.51063829787236" cx="123.33333333333334" r="1" id="25"/>
<path d="M 123.33333333333334 244.25531914893617 L 123.33333333333334 122.97872340425533" fill="none" stroke="blue" stroke-width="0.5"/>
<path fill="red" id="26" d="M 124.66666666666667 165.6595744680851 L 126.66666666666667 161.6595744680851 L 128.66666666666669 165.6595744680851 z"/>
<circle fill="black" cy="191.72340425531914" cx="126.66666666666667" r="1" id="26"/>
<path d="M 126.66666666666667 257.02127659574467 L 126.66666666666667 129.36170212765958" fill="none" stroke="blue" stroke-width="0.5"/>
<path fill="red" id="27" d="M 128 165.6595744680851 L 130 161.6595744680851 L 132 165.6595744680851 z"/>
<circle fill="black" cy="193.70212765957447" cx="130" r="1" id="27"/>
<path d="M 130 257.02127659574467 L 130 142.12765957446808" fill="none" stroke="blue" stroke-width="0.5"/>
<path fill="red" id="28" d="M 131.33333333333334 165.6595744680851 L 133.33333333333334 161.6595744680851 L 135.33333333333334 165.6595744680851 z"/>
<circle fill="black" cy="190.51063829787233" cx="133.33333333333334" r="1" id="28"/>
<path d="M 133.33333333333334 244.25531914893617 L 133.33333333333334 122.97872340425533" fill="none" stroke="blue" stroke-width="0.5"/>
<path fill="red" id="29" d="M 134.66666666666669 203.95744680851064 L 136.66666666666669 199.95744680851064 L 138.66666666666669 203.95744680851064 z"/>
<circle fill="black" cy="182.46808510638297" cx="136.66666666666669" r="1" id="29"/>
<path d="M 136.66666666666669 263.40425531914894 L 136.66666666666669 116.59574468085106" fill="none" stroke="blue" stroke-width="0.5"/>
<path fill="red" id="30" d="M 138 203.95744680851064 L 140 199.95744680851064 L 142 203.95744680851064 z"/>
<circle fill="black" cy="177.87234042553192" cx="140" r="1" id="30"/>
<path d="M 140 237.87234042553192 L 140 84.68085106382978" fill="none" stroke="blue" stroke-width="0.5"/>
<path fill="red" id="31" d="M 141.33333333333334 203.95744680851064 L 143.33333333333334 199.95744680851064 L 145.33333333333334 203.95744680851064 z"/>
<circle fill="black" cy="181.12765957446808" cx="143.33333333333334" r="1" id="31"/>
<path d="M 143.33333333333334 237.87234042553192 L 143.33333333333334 78.29787234042556" fill="none" stroke="blue" stroke-width="0.5"/>
<path fill="red" id="32" d="M 144.66666666666669 203.95744680851064 L 146.66666666666669 199.95744680851064 L 148.66666666666669 203.95744680851064 z"/>
<circle fill="black" cy="169.8936170212766" cx="146.66666666666669" r="1" id="32"/>
<path d="M 146.66666666666669 231.48936170212767 L 146.66666666666669 78.29787234042556" fill="none" stroke="blue" stroke-width="0.5"/>
<path fill="red" id="33" d="M 148 203.95744680851064 L 150 199.95744680851064 L 152 203.95744680851064 z"/>
<circle fill="black" cy="171.36170212765956" cx="150" r="1" id="33"/>
<path d="M 150 257.02127659574467 L 150 59.14893617021278" fill="none" stroke="blue" stroke-width="0.5"/>
<path fill="red" id="34" d="M 151.33333333333334 203.95744680851064 L 153.33333333333334 199.95744680851064 L 155.33333333333334 203.95744680851064 z"/>
<circle fill="black" cy="166.19148936170214" cx="153.33333333333334" r="1" id="34"/>
<path d="M 153.33333333333334 237.87234042553192 L 153.33333333333334 65.531914893617" fill="none" stroke="blue" stroke-width="0.5"/>
<path fill="red" id="35" d="M 154.66666666666669 203.95744680851064 L 156.66666666666669 199.95744680851064 L 158.66666666666669 203.95744680851064 z"/>
<circle fill="black" cy="167.78723404255322" cx="156.66666666666669" r="1" id="35"/>
<path d="M 156.66666666666669 237.87234042553192 L 156.66666666666669 103.82978723404256" fill="none" stroke="blue" stroke-width="0.5"/>
<path fill="red" id="36" d="M 158 203.95744680851064 L 160 199.95744680851064 L 162 203.95744680851064 z"/>
<circle fill="black" cy="166.63829787234044" cx="160" r="1" id="36"/>
<path d="M 160 237.87234042553192 L 160 84.68085106382978" fill="none" stroke="blue" stroke-width="0.5"/>
<path fill="red" id="37" d="M 161.33333333333334 203.95744680851064 L 163.33333333333334 199.95744680851064 L 165.33333333333334 203.95744680851064 z"/>
<circle fill="black" cy="166.00000000000003" cx="163.33333333333334" r="1" id="37"/>
<path d="M 163.33333333333334 231.48936170212767 L 163.33333333333334 97.4468085106383" fill="none" stroke="blue" stroke-width="0.5"/>
<path fill="red" id="38" d="M 164.66666666666669 203.95744680851064 L 166.66666666666669 199.95744680851064 L 168.66666666666669 203.95744680851064 z"/>
<circle fill="black" cy="170.85106382978725" cx="166.66666666666669" r="1" id="38"/>
<path d="M 166.66666666666669 231.48936170212767 L 166.66666666666669 84.68085106382978" fill="none" stroke="blue" stroke-width="0.5"/>
<path fill="red" id="39" d="M 168 203.95744680851064 L 170 199.95744680851064 L 172 203.95744680851064 z"/>
<circle fill="black" cy="170.34042553191492" cx="170" r="1" id="39"/>
<path d="M 170 231.48936170212767 L 170 110.2127659574468" fill="none" stroke="blue" stroke-width="0.5"/>
<path fill="red" id="40" d="M 171.33333333333334 203.95744680851064 L 173.33333333333334 199.95744680851064 L 175.33333333333334 203.95744680851064 z"/>
<circle fill="black" cy="169.57446808510636" cx="173.33333333333334" r="1" id="40"/>
<path d="M 173.33333333333334 231.48936170212767 L 173.33333333333334 91.06382978723406" fill="none" stroke="blue" stroke-width="0.5"/>
<path fill="red" id="41" d="M 174.66666666666669 203.95744680851064 L 176.66666666666669 199.95744680851064 L 178.66666666666669 203.95744680851064 z"/>
<circle fill="black" cy="168.68085106382978" cx="176.66666666666669" r="1" id="41"/>
<path d="M 176.66666666666669 237.87234042553192 L 176.66666666666669 97.4468085106383" fill="none" stroke="blue" stroke-width="0.5"/>
<path fill="red" id="42" d="M 178 203.95744680851064 L 180 199.95744680851064 L 182 203.95744680851064 z"/>
<circle fill="black" cy="165.36170212765958" cx="180" r="1" id="42"/>
<path d="M 180 237.87234042553192 L 180 84.68085106382978" fill="none" stroke="blue" stroke-width="0.5"/>
<path fill="red" id="43" d="M 181.33333333333334 235.87234042553192 L 183.33333333333334 231.87234042553192 L 185.33333333333334 235.87234042553192 z"/>
<circle fill="black" cy="166.19148936170214" cx="183.33333333333334" r="1" id="43"/>
<path d="M 183.33333333333334 237.87234042553192 L 183.33333333333334 84.68085106382978" fill="none" stroke="blue" stroke-width="0.5"/>
<path fill="red" id="44" d="M 184.66666666666669 235.87234042553192 L 186.66666666666669 231.87234042553192 L 188.66666666666669 235.87234042553192 z"/>
<circle fill="black" cy="167.46808510638297" cx="186.66666666666669" r="1" id="44"/>
<path d="M 186.66666666666669 244.25531914893617 L 186.66666666666669 71.91489361702128" fill="none" stroke="blue" stroke-width="0.5"/>
<path fill="red" id="45" d="M 188 235.87234042553192 L 190 231.87234042553192 L 192 235.87234042553192 z"/>
<circle fill="black" cy="163.63829787234042" cx="190" r="1" id="45"/>
<path d="M 190 250.63829787234044 L 190 52.7659574468085" fill="none" stroke="blue" stroke-width="0.5"/>
<path fill="red" id="46" d="M 191.33333333333334 235.87234042553192 L 193.33333333333334 231.87234042553192 L 195.33333333333334 235.87234042553192 z"/>
<circle fill="black" cy="166.51063829787233" cx="193.33333333333334" r="1" id="46"/>
<path d="M 193.33333333333334 244.25531914893617 L 193.33333333333334 65.531914893617" fill="none" stroke="blue" stroke-width="0.5"/>
<path fill="red" id="47" d="M 194.66666666666669 235.87234042553192 L 196.66666666666669 231.87234042553192 L 198.66666666666669 235.87234042553192 z"/>
<circle fill="black" cy="164.08510638297872" cx="196.66666666666669" r="1" id="47"/>
<path d="M 196.66666666666669 244.25531914893617 L 196.66666666666669 78.29787234042556" fill="none" stroke="blue" stroke-width="0.5"/>
<path fill="red" id="48" d="M 198 235.87234042553192 L 200 231.87234042553192 L 202 235.87234042553192 z"/>
<circle fill="black" cy="170.08510638297875" cx="200" r="1" id="48"/>
<path d="M 200 244.25531914893617 L 200 71.91489361702128" fill="none" stroke="blue" stroke-width="0.5"/>
<path fill="red" id="49" d="M 201.33333333333334 235.87234042553192 L 203.33333333333334 231.87234042553192 L 205.33333333333334 235.87234042553192 z"/>
<circle fill="black" cy="170.34042553191492" cx="203.33333333333334" r="1" id="49"/>
<path d="M 203.33333333333334 244.25531914893617 L 203.33333333333334 59.14893617021278" fill="none" stroke="blue" stroke-width="0.5"/>
<path fill="red" id="50" d="M 204.66666666666669 235.87234042553192 L 206.66666666666669 231.87234042553192 L 208.66666666666669 235.87234042553192 z"/>
<circle fill="black" cy="170.6595744680851" cx="206.66666666666669" r="1" id="50"/>
<path d="M 206.66666666666669 237.87234042553192 L 206.66666666666669 46.38297872340428" fill="none" stroke="blue" stroke-width="0.5"/>
<path fill="red" id="51" d="M 208 235.87234042553192 L 210 231.87234042553192 L 212 235.87234042553192 z"/>
<circle fill="black" cy="166.00000000000003" cx="210" r="1" id="51"/>
<path d="M 210 237.87234042553192 L 210 59.14893617021278" fill="none" stroke="blue" stroke-width="0.5"/>
<path fill="red" id="52" d="M 211.33333333333334 235.87234042553192 L 213.33333333333334 231.87234042553192 L 215.33333333333334 235.87234042553192 z"/>
<circle fill="black" cy="168.55319148936172" cx="213.33333333333334" r="1" id="52"/>
<path d="M 213.33333333333334 250.63829787234044 L 213.33333333333334 71.91489361702128" fill="none" stroke="blue" stroke-width="0.5"/>
<path fill="red" id="53" d="M 214.66666666666669 235.87234042553192 L 216.66666666666669 231.87234042553192 L 218.66666666666669 235.87234042553192 z"/>
<circle fill="black" cy="167.14893617021278" cx="216.66666666666669" r="1" id="53"/>
<path d="M 216.66666666666669 244.25531914893617 L 216.66666666666669 52.7659574468085" fill="none" stroke="blue" stroke-width="0.5"/>
<path fill="red" id="54" d="M 218 235.87234042553192 L 220 231.87234042553192 L 222 235.87234042553192 z"/>
<circle fill="black" cy="168.4255319148936" cx="220" r="1" id="54"/>
<path d="M 220 244.25531914893617 L 220 78.29787234042556" fill="none" stroke="blue" stroke-width="0.5"/>
<path fill="red" id="55" d="M 221.33333333333334 242.25531914893617 L 223.33333333333334 238.25531914893617 L 225.33333333333334 242.25531914893617 z"/>
<circle fill="black" cy="168.0425531914894" cx="223.33333333333334" r="1" id="55"/>
<path d="M 223.33333333333334 244.25531914893617 L 223.33333333333334 65.531914893617" fill="none" stroke="blue" stroke-width="0.5"/>
<path fill="red" id="56" d="M 224.66666666666669 242.25531914893617 L 226.66666666666669 238.25531914893617 L 228.66666666666669 242.25531914893617 z"/>
<circle fill="black" cy="168.29787234042556" cx="226.66666666666669" r="1" id="56"/>
<path d="M 226.66666666666669 250.63829787234044 L 226.66666666666669 65.531914893617" fill="none" stroke="blue" stroke-width="0.5"/>
<path fill="red" id="57" d="M 228 242.25531914893617 L 230 238.25531914893617 L 232 242.25531914893617 z"/>
<circle fill="black" cy="170.34042553191492" cx="230" r="1" id="57"/>
<path d="M 230 269.7872340425532 L 230 84.68085106382978" fill="none" stroke="blue" stroke-width="0.5"/>
<path fill="red" id="58" d="M 231.33333333333334 242.25531914893617 L 233.33333333333334 238.25531914893617 L 235.33333333333334 242.25531914893617 z"/>
<circle fill="black" cy="170.2127659574468" cx="233.33333333333334" r="1" id="58"/>
<path d="M 233.33333333333334 250.63829787234044 L 233.33333333333334 78.29787234042556" fill="none" stroke="blue" stroke-width="0.5"/>
<path fill="red" id="59" d="M 234.66666666666669 242.25531914893617 L 236.66666666666669 238.25531914893617 L 238.66666666666669 242.25531914893617 z"/>
<circle fill="black" cy="165.17021276595744" cx="236.66666666666669" r="1" id="59"/>
<path d="M 236.66666666666669 244.25531914893617 L 236.66666666666669 65.531914893617" fill="none" stroke="blue" stroke-width="0.5"/>
<path fill="red" id="60" d="M 238 242.25531914893617 L 240 238.25531914893617 L 242 242.25531914893617 z"/>
<circle fill="black" cy="166.5744680851064" cx="240" r="1" id="60"/>
<path d="M 240 244.25531914893617 L 240 59.14893617021278" fill="none" stroke="blue" stroke-width="0.5"/>
<path fill="red" id="61" d="M 241.33333333333334 235.87234042553192 L 243.33333333333334 231.87234042553192 L 245.33333333333334 235.87234042553192 z"/>
<circle fill="black" cy="165.68085106382978" cx="243.33333333333334" r="1" id="61"/>
<path d="M 243.33333333333334 244.25531914893617 L 243.33333333333334 71.91489361702128" fill="none" stroke="blue" stroke-width="0.5"/>
<path fill="red" id="62" d="M 244.66666666666669 235.87234042553192 L 246.66666666666669 231.87234042553192 L 248.66666666666669 235.87234042553192 z"/>
<circle fill="black" cy="168.55319148936172" cx="246.66666666666669" r="1" id="62"/>
<path d="M 246.66666666666669 244.25531914893617 L 246.66666666666669 78.29787234042556" fill="none" stroke="blue" stroke-width="0.5"/>
<path fill="red" id="63" d="M 248 235.87234042553192 L 250 231.87234042553192 L 252 235.87234042553192 z"/>
<circle fill="black" cy="167.27659574468083" cx="250" r="1" id="63"/>
<path d="M 250 244.25531914893617 L 250 59.14893617021278" fill="none" stroke="blue" stroke-width="0.5"/>
<path fill="red" id="64" d="M 251.33333333333334 235.87234042553192 L 253.33333333333334 231.87234042553192 L 255.33333333333334 235.87234042553192 z"/>
<circle fill="black" cy="172.82978723404258" cx="253.33333333333334" r="1" id="64"/>
<path d="M 253.33333333333334 250.63829787234044 L 253.33333333333334 84.68085106382978" fill="none" stroke="blue" stroke-width="0.5"/>
<path fill="red" id="65" d="M 254.66666666666669 235.87234042553192 L 256.6666666666667 231.87234042553192 L 258.6666666666667 235.87234042553192 z"/>
<circle fill="black" cy="174.6808510638298" cx="256.6666666666667" r="1" id="65"/>
<path d="M 256.6666666666667 244.25531914893617 L 256.6666666666667 71.91489361702128" fill="none" stroke="blue" stroke-width="0.5"/>
<path fill="red" id="66" d="M 258 242.25531914893617 L 260 238.25531914893617 L 262 242.25531914893617 z"/>
<circle fill="black" cy="172.51063829787233" cx="260" r="1" id="66"/>
<path d="M 260 244.25531914893617 L 260 78.29787234042556" fill="none" stroke="blue" stroke-width="0.5"/>
<path fill="red" id="67" d="M 261.33333333333337 242.25531914893617 L 263.33333333333337 238.25531914893617 L 265.33333333333337 242.25531914893617 z"/>
<circle fill="black" cy="174.48936170212767" cx="263.33333333333337" r="1" id="67"/>
<path d="M 263.33333333333337 250.63829787234044 L 263.33333333333337 78.29787234042556" fill="none" stroke="blue" stroke-width="0.5"/>
<path fill="red" id="68" d="M 264.6666666666667 242.25531914893617 L 266.6666666666667 238.25531914893617 L 268.6666666666667 242.25531914893617 z"/>
<circle fill="black" cy="170.6595744680851" cx="266.6666666666667" r="1" id="68"/>
<path d="M 266.6666666666667 269.7872340425532 L 266.6666666666667 78.29787234042556" fill="none" stroke="blue" stroke-width="0.5"/>
<path fill="red" id="69" d="M 268 242.25531914893617 L 270 238.25531914893617 L 272 242.25531914893617 z"/>
<circle fill="black" cy="174.04255319148936" cx="270" r="1" id="69"/>
<path d="M 270 250.63829787234044 L 270 84.68085106382978" fill="none" stroke="blue" stroke-width="0.5"/>
<path fill="red" id="70" d="M 271.33333333333337 242.25531914893617 L 273.33333333333337 238.25531914893617 L 275.33333333333337 242.25531914893617 z"/>
<circle fill="black" cy="173.08510638297872" cx="273.33333333333337" r="1" id="70"/>
<path d="M 273.33333333333337 250.63829787234044 L 273.33333333333337 84.68085106382978" fill="none" stroke="blue" stroke-width="0.5"/>
<path fill="red" id="71" d="M 274.6666666666667 242.25531914893617 L 276.6666666666667 238.25531914893617 L 278.6666666666667 242.25531914893617 z"/>
<circle fill="black" cy="176.21276595744683" cx="276.6666666666667" r="1" id="71"/>
<path d="M 276.6666666666667 257.02127659574467 L 276.6666666666667 71.91489361702128" fill="none" stroke="blue" stroke-width="0.5"/>
<path fill="red" id="72" d="M 278 242.25531914893617 L 280 238.25531914893617 L 282 242.25531914893617 z"/>
<circle fill="black" cy="172.82978723404258" cx="280" r="1" id="72"/>
<path d="M 280 250.63829787234044 L 280 46.38297872340428" fill="none" stroke="blue" stroke-width="0.5"/>
<path fill="red" id="73" d="M 281.33333333333337 242.25531914893617 L 283.33333333333337 238.25531914893617 L 285.33333333333337 242.25531914893617 z"/>
<circle fill="black" cy="170.7872340425532" cx="283.33333333333337" r="1" id="73"/>
<path d="M 283.33333333333337 269.7872340425532 L 283.33333333333337 59.14893617021278" fill="none" stroke="blue" stroke-width="0.5"/>
<path fill="red" id="74" d="M 284.6666666666667 242.25531914893617 L 286.6666666666667 238.25531914893617 L 288.6666666666667 242.25531914893617 z"/>
<circle fill="black" cy="176.3404255319149" cx="286.6666666666667" r="1" id="74"/>
<path d="M 286.6666666666667 269.7872340425532 L 286.6666666666667 78.29787234042556" fill="none" stroke="blue" stroke-width="0.5"/>
<path fill="red" id="75" d="M 288 242.25531914893617 L 290 238.25531914893617 L 292 242.25531914893617 z"/>
<circle fill="black" cy="182.0212765957447" cx="290" r="1" id="75"/>
<path d="M 290 301.70212765957444 L 290 65.531914893617" fill="none" stroke="blue" stroke-width="0.5"/>
<path fill="red" id="76" d="M 291.33333333333337 242.25531914893617 L 293.33333333333337 238.25531914893617 L 295.33333333333337 242.25531914893617 z"/>
<circle fill="black" cy="181.1914893617021" cx="293.33333333333337" r="1" id="76"/>
<path d="M 293.33333333333337 301.70212765957444 L 293.33333333333337 71.91489361702128" fill="none" stroke="blue" stroke-width="0.5"/>
<path fill="red" id="77" d="M 294.6666666666667 242.25531914893617 L 296.6666666666667 238.25531914893617 L 298.6666666666667 242.25531914893617 z"/>
<circle fill="black" cy="181.44680851063828" cx="296.6666666666667" r="1" id="77"/>
<path d="M 296.6666666666667 301.70212765957444 L 296.6666666666667 78.29787234042556" fill="none" stroke="blue" stroke-width="0.5"/>
<path fill="red" id="78" d="M 298 242.25531914893617 L 300 238.25531914893617 L 302 242.25531914893617 z"/>
<circle fill="black" cy="180.55319148936172" cx="300" r="1" id="78"/>
<path d="M 300 301.70212765957444 L 300 78.29787234042556" fill="none" stroke="blue" stroke-width="0.5"/>
<path fill="red" id="79" d="M 301.33333333333337 242.25531914893617 L 303.33333333333337 238.25531914893617 L 305.33333333333337 242.25531914893617 z"/>
<circle fill="black" cy="182.531914893617" cx="303.33333333333337" r="1" id="79"/>
<path d="M 303.33333333333337 301.70212765957444 L 303.33333333333337 78.29787234042556" fill="none" stroke="blue" stroke-width="0.5"/>
<path fill="red" id="80" d="M 304.6666666666667 242.25531914893617 L 306.6666666666667 238.25531914893617 L 308.6666666666667 242.25531914893617 z"/>
<circle fill="black" cy="180.87234042553192" cx="306.6666666666667" r="1" id="80"/>
<path d="M 306.6666666666667 301.70212765957444 L 306.6666666666667 84.68085106382978" fill="none" stroke="blue" stroke-width="0.5"/>
<path fill="red" id="81" d="M 308 242.25531914893617 L 310 238.25531914893617 L 312 242.25531914893617 z"/>
<circle fill="black" cy="181.5744680851064" cx="310" r="1" id="81"/>
<path d="M 310 308.0851063829787 L 310 78.29787234042556" fill="none" stroke="blue" stroke-width="0.5"/>
<path fill="red" id="82" d="M 311.33333333333337 242.25531914893617 L 313.33333333333337 238.25531914893617 L 315.33333333333337 242.25531914893617 z"/>
<circle fill="black" cy="183.29787234042556" cx="313.33333333333337" r="1" id="82"/>
<path d="M 313.33333333333337 308.0851063829787 L 313.33333333333337 78.29787234042556" fill="none" stroke="blue" stroke-width="0.5"/>
<path fill="red" id="83" d="M 314.6666666666667 242.25531914893617 L 316.6666666666667 238.25531914893617 L 318.6666666666667 242.25531914893617 z"/>
<circle fill="black" cy="181.31914893617022" cx="316.6666666666667" r="1" id="83"/>
<path d="M 316.6666666666667 301.70212765957444 L 316.6666666666667 65.531914893617" fill="none" stroke="blue" stroke-width="0.5"/>
<path fill="red" id="84" d="M 318 242.25531914893617 L 320 238.25531914893617 L 322 242.25531914893617 z"/>
<circle fill="black" cy="183.55319148936172" cx="320" r="1" id="84"/>
<path d="M 320 301.70212765957444 L 320 84.68085106382978" fill="none" stroke="blue" stroke-width="0.5"/>
<path fill="red" id="85" d="M 321.33333333333337 242.25531914893617 L 323.33333333333337 238.25531914893617 L 325.33333333333337 242.25531914893617 z"/>
<circle fill="black" cy="190.06382978723406" cx="323.33333333333337" r="1" id="85"/>
<path d="M 323.33333333333337 333.6170212765957 L 323.33333333333337 71.91489361702128" fill="none" stroke="blue" stroke-width="0.5"/>
<path fill="red" id="86" d="M 324.6666666666667 242.25531914893617 L 326.6666666666667 238.25531914893617 L 328.6666666666667 242.25531914893617 z"/>
<circle fill="black" cy="190.63829787234044" cx="326.6666666666667" r="1" id="86"/>
<path d="M 326.6666666666667 301.70212765957444 L 326.6666666666667 71.91489361702128" fill="none" stroke="blue" stroke-width="0.5"/>
<path fill="red" id="87" d="M 328 242.25531914893617 L 330 238.25531914893617 L 332 242.25531914893617 z"/>
<circle fill="black" cy="191.53191489361703" cx="330" r="1" id="87"/>
<path d="M 330 301.70212765957444 L 330 52.7659574468085" fill="none" stroke="blue" stroke-width="0.5"/>
<path fill="red" id="88" d="M 331.33333333333337 242.25531914893617 L 333.33333333333337 238.25531914893617 L 335.33333333333337 242.25531914893617 z"/>
<circle fill="black" cy="191.46808510638297" cx="333.33333333333337" r="1" id="88"/>
<path d="M 333.33333333333337 340 L 333.33333333333337 65.531914893617" fill="none" stroke="blue" stroke-width="0.5"/>
<path fill="red" id="89" d="M 334.6666666666667 242.25531914893617 L 336.6666666666667 238.25531914893617 L 338.6666666666667 242.25531914893617 z"/>
<circle fill="black" cy="195.74468085106383" cx="336.6666666666667" r="1" id="89"/>
<path d="M 336.6666666666667 340 L 336.6666666666667 91.06382978723406" fill="none" stroke="blue" stroke-width="0.5"/>
<path fill="red" id="90" d="M 338 242.25531914893617 L 340 238.25531914893617 L 342 242.25531914893617 z"/>
<circle fill="black" cy="194.72340425531914" cx="340" r="1" id="90"/>
<path d="M 340 340 L 340 84.68085106382978" fill="none" stroke="blue" stroke-width="0.5"/>
<path fill="red" id="91" d="M 341.33333333333337 242.25531914893617 L 343.33333333333337 238.25531914893617 L 345.33333333333337 242.25531914893617 z"/>
<circle fill="black" cy="192.36170212765958" cx="343.33333333333337" r="1" id="91"/>
<path d="M 343.33333333333337 333.6170212765957 L 343.33333333333337 78.29787234042556" fill="none" stroke="blue" stroke-width="0.5"/>
<path fill="red" id="92" d="M 344.6666666666667 242.25531914893617 L 346.6666666666667 238.25531914893617 L 348.6666666666667 242.25531914893617 z"/>
<circle fill="black" cy="200.6595744680851" cx="346.6666666666667" r="1" id="92"/>
<path d="M 346.6666666666667 340 L 346.6666666666667 84.68085106382978" fill="none" stroke="blue" stroke-width="0.5"/>
<path fill="red" id="93" d="M 348 242.25531914893617 L 350 238.25531914893617 L 352 242.25531914893617 z"/>
<circle fill="black" cy="199" cx="350" r="1" id="93"/>
<path d="M 350 340 L 350 78.29787234042556" fill="none" stroke="blue" stroke-width="0.5"/>
<path fill="red" id="94" d="M 351.33333333333337 242.25531914893617 L 353.33333333333337 238.25531914893617 L 355.33333333333337 242.25531914893617 z"/>
<circle fill="black" cy="200.9787234042553" cx="353.33333333333337" r="1" id="94"/>
<path d="M 353.33333333333337 333.6170212765957 L 353.33333333333337 91.06382978723406" fill="none" stroke="blue" stroke-width="0.5"/>
<path fill="red" id="95" d="M 354.6666666666667 242.25531914893617 L 356.6666666666667 238.25531914893617 L 358.6666666666667 242.25531914893617 z"/>
<circle fill="black" cy="200.27659574468086" cx="356.6666666666667" r="1" id="95"/>
<path d="M 356.6666666666667 333.6170212765957 L 356.6666666666667 78.29787234042556" fill="none" stroke="blue" stroke-width="0.5"/>
<path fill="red" id="96" d="M 358 242.25531914893617 L 360 238.25531914893617 L 362 242.25531914893617 z"/>
<circle fill="black" cy="206.0212765957447" cx="360" r="1" id="96"/>
<path d="M 360 340 L 360 78.29787234042556" fill="none" stroke="blue" stroke-width="0.5"/>
<path fill="red" id="97" d="M 361.33333333333337 242.25531914893617 L 363.33333333333337 238.25531914893617 L 365.33333333333337 242.25531914893617 z"/>
<circle fill="black" cy="209.46808510638297" cx="363.33333333333337" r="1" id="97"/>
<path d="M 363.33333333333337 340 L 363.33333333333337 71.91489361702128" fill="none" stroke="blue" stroke-width="0.5"/>
<path fill="red" id="98" d="M 364.6666666666667 242.25531914893617 L 366.6666666666667 238.25531914893617 L 368.6666666666667 242.25531914893617 z"/>
<circle fill="black" cy="209.27659574468086" cx="366.6666666666667" r="1" id="98"/>
<path d="M 366.6666666666667 340 L 366.6666666666667 71.91489361702128" fill="none" stroke="blue" stroke-width="0.5"/>
<path fill="red" id="99" d="M 368 242.25531914893617 L 370 238.25531914893617 L 372 242.25531914893617 z"/>
<circle fill="black" cy="208" cx="370" r="1" id="99"/>
<path d="M 370 340 L 370 78.29787234042556" fill="none" stroke="blue" stroke-width="0.5"/>
<path fill="red" id="100" d="M 371.33333333333337 242.25531914893617 L 373.33333333333337 238.25531914893617 L 375.33333333333337 242.25531914893617 z"/>
<circle fill="black" cy="209.08510638297872" cx="373.33333333333337" r="1" id="100"/>
<path d="M 373.33333333333337 340 L 373.33333333333337 84.68085106382978" fill="none" stroke="blue" stroke-width="0.5"/>
<path fill="red" id="101" d="M 374.6666666666667 242.25531914893617 L 376.6666666666667 238.25531914893617 L 378.6666666666667 242.25531914893617 z"/>
<circle fill="black" cy="207.87234042553192" cx="376.6666666666667" r="1" id="101"/>
<path d="M 376.6666666666667 340 L 376.6666666666667 84.68085106382978" fill="none" stroke="blue" stroke-width="0.5"/>
<path fill="red" id="102" d="M 378 242.25531914893617 L 380 238.25531914893617 L 382 242.25531914893617 z"/>
<circle fill="black" cy="202.89361702127658" cx="380" r="1" id="102"/>
<path d="M 380 340 L 380 84.68085106382978" fill="none" stroke="blue" stroke-width="0.5"/>
<path fill="red" id="103" d="M 381.33333333333337 242.25531914893617 L 383.33333333333337 238.25531914893617 L 385.33333333333337 242.25531914893617 z"/>
<circle fill="black" cy="202.7659574468085" cx="383.33333333333337" r="1" id="103"/>
<path d="M 383.33333333333337 340 L 383.33333333333337 65.531914893617" fill="none" stroke="blue" stroke-width="0.5"/>
<path fill="red" id="104" d="M 384.6666666666667 242.25531914893617 L 386.6666666666667 238.25531914893617 L 388.6666666666667 242.25531914893617 z"/>
<circle fill="black" cy="204.29787234042553" cx="386.6666666666667" r="1" id="104"/>
<path d="M 386.6666666666667 340 L 386.6666666666667 71.91489361702128" fill="none" stroke="blue" stroke-width="0.5"/>
<path fill="red" id="105" d="M 388 242.25531914893617 L 390 238.25531914893617 L 392 242.25531914893617 z"/>
<circle fill="black" cy="202.51063829787236" cx="390" r="1" id="105"/>
<path d="M 390 340 L 390 52.7659574468085" fill="none" stroke="blue" stroke-width="0.5"/>
<path fill="red" id="106" d="M 391.33333333333337 242.25531914893617 L 393.33333333333337 238.25531914893617 L 395.33333333333337 242.25531914893617 z"/>
<circle fill="black" cy="200.21276595744683" cx="393.33333333333337" r="1" id="106"/>
<path d="M 393.33333333333337 340 L 393.33333333333337 91.06382978723406" fill="none" stroke="blue" stroke-width="0.5"/>
<path fill="red" id="107" d="M 394.6666666666667 242.25531914893617 L 396.6666666666667 238.25531914893617 L 398.6666666666667 242.25531914893617 z"/>
<circle fill="black" cy="200.27659574468086" cx="396.6666666666667" r="1" id="107"/>
<path d="M 396.6666666666667 340 L 396.6666666666667 78.29787234042556" fill="none" stroke="blue" stroke-width="0.5"/>
<path fill="red" id="108" d="M 398 242.25531914893617 L 400 238.25531914893617 L 402 242.25531914893617 z"/>
<circle fill="black" cy="201.4255319148936" cx="400" r="1" id="108"/>
<path d="M 400 340 L 400 78.29787234042556" fill="none" stroke="blue" stroke-width="0.5"/>
<path fill="red" id="109" d="M 401.33333333333337 242.25531914893617 L 403.33333333333337 238.25531914893617 L 405.33333333333337 242.25531914893617 z"/>
<circle fill="black" cy="196.82978723404256" cx="403.33333333333337" r="1" id="109"/>
<path d="M 403.33333333333337 340 L 403.33333333333337 91.06382978723406" fill="none" stroke="blue" stroke-width="0.5"/>
<path fill="red" id="110" d="M 404.6666666666667 242.25531914893617 L 406.6666666666667 238.25531914893617 L 408.6666666666667 242.25531914893617 z"/>
<circle fill="black" cy="196.1914893617021" cx="406.6666666666667" r="1" id="110"/>
<path d="M 406.6666666666667 340 L 406.6666666666667 78.29787234042556" fill="none" stroke="blue" stroke-width="0.5"/>
<path fill="red" id="111" d="M 408 242.25531914893617 L 410 238.25531914893617 L 412 242.25531914893617 z"/>
<circle fill="black" cy="200.08510638297872" cx="410" r="1" id="111"/>
<path d="M 410 340 L 410 65.531914893617" fill="none" stroke="blue" stroke-width="0.5"/>
<path fill="red" id="112" d="M 411.33333333333337 242.25531914893617 L 413.33333333333337 238.25531914893617 L 415.33333333333337 242.25531914893617 z"/>
<circle fill="black" cy="201.29787234042553" cx="413.33333333333337" r="1" id="112"/>
<path d="M 413.33333333333337 340 L 413.33333333333337 97.4468085106383" fill="none" stroke="blue" stroke-width="0.5"/>
<path fill="red" id="113" d="M 414.6666666666667 242.25531914893617 L 416.6666666666667 238.25531914893617 L 418.6666666666667 242.25531914893617 z"/>
<circle fill="black" cy="202.89361702127658" cx="416.6666666666667" r="1" id="113"/>
<path d="M 416.6666666666667 340 L 416.6666666666667 91.06382978723406" fill="none" stroke="blue" stroke-width="0.5"/>
<path fill="red" id="114" d="M 418 242.25531914893617 L 420 238.25531914893617 L 422 242.25531914893617 z"/>
<circle fill="black" cy="201.74468085106383" cx="420" r="1" id="114"/>
<path d="M 420 340 L 420 91.06382978723406" fill="none" stroke="blue" stroke-width="0.5"/>
<path fill="red" id="115" d="M 421.33333333333337 242.25531914893617 L 423.33333333333337 238.25531914893617 L 425.33333333333337 242.25531914893617 z"/>
<circle fill="black" cy="202.7659574468085" cx="423.33333333333337" r="1" id="115"/>
<path d="M 423.33333333333337 340 L 423.33333333333337 78.29787234042556" fill="none" stroke="blue" stroke-width="0.5"/>
<path fill="red" id="116" d="M 424.6666666666667 242.25531914893617 L 426.6666666666667 238.25531914893617 L 428.6666666666667 242.25531914893617 z"/>
<circle fill="black" cy="203.08510638297872" cx="426.6666666666667" r="1" id="116"/>
<path d="M 426.6666666666667 340 L 426.6666666666667 71.91489361702128" fill="none" stroke="blue" stroke-width="0.5"/>
<path fill="red" id="117" d="M 428 242.25531914893617 L 430 238.25531914893617 L 432 242.25531914893617 z"/>
<circle fill="black" cy="204.6808510638298" cx="430" r="1" id="117"/>
<path d="M 430 340 L 430 71.91489361702128" fill="none" stroke="blue" stroke-width="0.5"/>
<path fill="red" id="118" d="M 431.33333333333337 242.25531914893617 L 433.33333333333337 238.25531914893617 L 435.33333333333337 242.25531914893617 z"/>
<circle fill="black" cy="203.72340425531914" cx="433.33333333333337" r="1" id="118"/>
<path d="M 433.33333333333337 340 L 433.33333333333337 97.4468085106383" fill="none" stroke="blue" stroke-width="0.5"/>
<path fill="red" id="119" d="M 434.6666666666667 242.25531914893617 L 436.6666666666667 238.25531914893617 L 438.6666666666667 242.25531914893617 z"/>
<circle fill="black" cy="200.3404255319149" cx="436.6666666666667" r="1" id="119"/>
<path d="M 436.6666666666667 340 L 436.6666666666667 91.06382978723406" fill="none" stroke="blue" stroke-width="0.5"/>
<path fill="red" id="120" d="M 438 242.25531914893617 L 440 238.25531914893617 L 442 242.25531914893617 z"/>
<circle fill="black" cy="201.48936170212767" cx="440" r="1" id="120"/>
<path d="M 440 340 L 440 71.91489361702128" fill="none" stroke="blue" stroke-width="0.5"/>
<path fill="red" id="121" d="M 441.33333333333337 242.25531914893617 L 443.33333333333337 238.25531914893617 L 445.33333333333337 242.25531914893617 z"/>
<circle fill="black" cy="201.87234042553192" cx="443.33333333333337" r="1" id="121"/>
<path d="M 443.33333333333337 340 L 443.33333333333337 78.29787234042556" fill="none" stroke="blue" stroke-width="0.5"/>
<path fill="red" id="122" d="M 444.6666666666667 242.25531914893617 L 446.6666666666667 238.25531914893617 L 448.6666666666667 242.25531914893617 z"/>
<circle fill="black" cy="198.87234042553192" cx="446.6666666666667" r="1" id="122"/>
<path d="M 446.6666666666667 314.468085106383 L 446.6666666666667 91.06382978723406" fill="none" stroke="blue" stroke-width="0.5"/>
<path fill="red" id="123" d="M 448 242.25531914893617 L 450 238.25531914893617 L 452 242.25531914893617 z"/>
<circle fill="black" cy="198.87234042553192" cx="450" r="1" id="123"/>
<path d="M 450 308.0851063829787 L 450 84.68085106382978" fill="none" stroke="blue" stroke-width="0.5"/>
<path fill="red" id="124" d="M 451.33333333333337 242.25531914893617 L 453.33333333333337 238.25531914893617 L 455.33333333333337 242.25531914893617 z"/>
<circle fill="black" cy="200.59574468085106" cx="453.33333333333337" r="1" id="124"/>
<path d="M 453.33333333333337 340 L 453.33333333333337 91.06382978723406" fill="none" stroke="blue" stroke-width="0.5"/>
<path fill="red" id="125" d="M 454.6666666666667 242.25531914893617 L 456.6666666666667 238.25531914893617 L 458.6666666666667 242.25531914893617 z"/>
<circle fill="black" cy="200.14893617021278" cx="456.6666666666667" r="1" id="125"/>
<path d="M 456.6666666666667 340 L 456.6666666666667 91.06382978723406" fill="none" stroke="blue" stroke-width="0.5"/>
<path fill="red" id="126" d="M 458 242.25531914893617 L 460 238.25531914893617 L 462 242.25531914893617 z"/>
<circle fill="black" cy="199" cx="460" r="1" id="126"/>
<path d="M 460 333.6170212765957 L 460 65.531914893617" fill="none" stroke="blue" stroke-width="0.5"/>
<path fill="red" id="127" d="M 461.33333333333337 242.25531914893617 L 463.33333333333337 238.25531914893617 L 465.33333333333337 242.25531914893617 z"/>
<circle fill="black" cy="198.87234042553192" cx="463.33333333333337" r="1" id="127"/>
<path d="M 463.33333333333337 308.0851063829787 L 463.33333333333337 84.68085106382978" fill="none" stroke="blue" stroke-width="0.5"/>
<path fill="red" id="128" d="M 464.6666666666667 242.25531914893617 L 466.6666666666667 238.25531914893617 L 468.6666666666667 242.25531914893617 z"/>
<circle fill="black" cy="200.3404255319149" cx="466.6666666666667" r="1" id="128"/>
<path d="M 466.6666666666667 340 L 466.6666666666667 78.29787234042556" fill="none" stroke="blue" stroke-width="0.5"/>
<path fill="red" id="129" d="M 468 242.25531914893617 L 470 238.25531914893617 L 472 242.25531914893617 z"/>
<circle fill="black" cy="200.21276595744683" cx="470" r="1" id="129"/>
<path d="M 470 340 L 470 84.68085106382978" fill="none" stroke="blue" stroke-width="0.5"/>
<path fill="red" id="130" d="M 471.33333333333337 242.25531914893617 L 473.33333333333337 238.25531914893617 L 475.33333333333337 242.25531914893617 z"/>
<circle fill="black" cy="198.10638297872342" cx="473.33333333333337" r="1" id="130"/>
<path d="M 473.33333333333337 340 L 473.33333333333337 91.06382978723406" fill="none" stroke="blue" stroke-width="0.5"/>
<path fill="red" id="131" d="M 474.6666666666667 242.25531914893617 L 476.6666666666667 238.25531914893617 L 478.6666666666667 242.25531914893617 z"/>
<circle fill="black" cy="197.91489361702128" cx="476.6666666666667" r="1" id="131"/>
<path d="M 476.6666666666667 340 L 476.6666666666667 71.91489361702128" fill="none" stroke="blue" stroke-width="0.5"/>
<path fill="red" id="132" d="M 478 242.25531914893617 L 480 238.25531914893617 L 482 242.25531914893617 z"/>
<circle fill="black" cy="200.3404255319149" cx="480" r="1" id="132"/>
<path d="M 480 340 L 480 91.06382978723406" fill="none" stroke="blue" stroke-width="0.5"/>
<path fill="red" id="133" d="M 481.33333333333337 242.25531914893617 L 483.33333333333337 238.25531914893617 L 485.33333333333337 242.25531914893617 z"/>
<circle fill="black" cy="203.59574468085106" cx="483.33333333333337" r="1" id="133"/>
<path d="M 483.33333333333337 340 L 483.33333333333337 78.29787234042556" fill="none" stroke="blue" stroke-width="0.5"/>
<path fill="red" id="134" d="M 484.6666666666667 242.25531914893617 L 486.6666666666667 238.25531914893617 L 488.6666666666667 242.25531914893617 z"/>
<circle fill="black" cy="202.06382978723406" cx="486.6666666666667" r="1" id="134"/>
<path d="M 486.6666666666667 308.0851063829787 L 486.6666666666667 59.14893617021278" fill="none" stroke="blue" stroke-width="0.5"/>
<path fill="red" id="135" d="M 488 242.25531914893617 L 490 238.25531914893617 L 492 242.25531914893617 z"/>
<circle fill="black" cy="201.2340425531915" cx="490" r="1" id="135"/>
<path d="M 490 308.0851063829787 L 490 71.91489361702128" fill="none" stroke="blue" stroke-width="0.5"/>
<path fill="red" id="136" d="M 491.33333333333337 242.25531914893617 L 493.33333333333337 238.25531914893617 L 495.33333333333337 242.25531914893617 z"/>
<circle fill="black" cy="204.29787234042553" cx="493.33333333333337" r="1" id="136"/>
<path d="M 493.33333333333337 308.0851063829787 L 493.33333333333337 84.68085106382978" fill="none" stroke="blue" stroke-width="0.5"/>
<path fill="red" id="137" d="M 494.6666666666667 242.25531914893617 L 496.6666666666667 238.25531914893617 L 498.6666666666667 242.25531914893617 z"/>
<circle fill="black" cy="200.85106382978722" cx="496.6666666666667" r="1" id="137"/>
<path d="M 496.6666666666667 340 L 496.6666666666667 40" fill="none" stroke="blue" stroke-width="0.5"/>
<path fill="red" id="138" d="M 498 242.25531914893617 L 500 238.25531914893617 L 502 242.25531914893617 z"/>
<circle fill="black" cy="199.82978723404256" cx="500" r="1" id="138"/>
<path d="M 500 308.0851063829787 L 500 59.14893617021278" fill="none" stroke="blue" stroke-width="0.5"/>
<path fill="red" id="139" d="M 501.33333333333337 242.25531914893617 L 503.33333333333337 238.25531914893617 L 505.33333333333337 242.25531914893617 z"/>
<circle fill="black" cy="201.4255319148936" cx="503.33333333333337" r="1" id="139"/>
<path d="M 503.33333333333337 314.468085106383 L 503.33333333333337 91.06382978723406" fill="none" stroke="blue" stroke-width="0.5"/>
<path fill="red" id="140" d="M 504.6666666666667 242.25531914893617 L 506.6666666666667 238.25531914893617 L 508.6666666666667 242.25531914893617 z"/>
<circle fill="black" cy="201.74468085106383" cx="506.6666666666667" r="1" id="140"/>
<path d="M 506.6666666666667 308.0851063829787 L 506.6666666666667 84.68085106382978" fill="none" stroke="blue" stroke-width="0.5"/>
<path fill="red" id="141" d="M 508 242.25531914893617 L 510 238.25531914893617 L 512 242.25531914893617 z"/>
<circle fill="black" cy="201.93617021276597" cx="510" r="1" id="141"/>
<path d="M 510 340 L 510 84.68085106382978" fill="none" stroke="blue" stroke-width="0.5"/>
<path fill="red" id="142" d="M 511.33333333333337 242.25531914893617 L 513.3333333333334 238.25531914893617 L 515.3333333333334 242.25531914893617 z"/>
<circle fill="black" cy="199.76595744680853" cx="513.3333333333334" r="1" id="142"/>
<path d="M 513.3333333333334 308.0851063829787 L 513.3333333333334 78.29787234042556" fill="none" stroke="blue" stroke-width="0.5"/>
<path fill="red" id="143" d="M 514.6666666666667 242.25531914893617 L 516.6666666666667 238.25531914893617 L 518.6666666666667 242.25531914893617 z"/>
<circle fill="black" cy="200.21276595744683" cx="516.6666666666667" r="1" id="143"/>
<path d="M 516.6666666666667 308.0851063829787 L 516.6666666666667 97.4468085106383" fill="none" stroke="blue" stroke-width="0.5"/>
<path fill="red" id="144" d="M 518 242.25531914893617 L 520 238.25531914893617 L 522 242.25531914893617 z"/>
<circle fill="black" cy="201.5531914893617" cx="520" r="1" id="144"/>
<path d="M 520 340 L 520 84.68085106382978" fill="none" stroke="blue" stroke-width="0.5"/>
<path fill="red" id="145" d="M 521.3333333333334 242.25531914893617 L 523.3333333333334 238.25531914893617 L 525.3333333333334 242.25531914893617 z"/>
<circle fill="black" cy="202.70212765957447" cx="523.3333333333334" r="1" id="145"/>
<path d="M 523.3333333333334 340 L 523.3333333333334 78.29787234042556" fill="none" stroke="blue" stroke-width="0.5"/>
<path fill="red" id="146" d="M 524.6666666666667 242.25531914893617 L 526.6666666666667 238.25531914893617 L 528.6666666666667 242.25531914893617 z"/>
<circle fill="black" cy="201.74468085106383" cx="526.6666666666667" r="1" id="146"/>
<path d="M 526.6666666666667 340 L 526.6666666666667 84.68085106382978" fill="none" stroke="blue" stroke-width="0.5"/>
<path fill="red" id="147" d="M 528 242.25531914893617 L 530 238.25531914893617 L 532 242.25531914893617 z"/>
<circle fill="black" cy="202.95744680851064" cx="530" r="1" id="147"/>
<path d="M 530 340 L 530 84.68085106382978" fill="none" stroke="blue" stroke-width="0.5"/>
<path fill="red" id="148" d="M 531.3333333333334 242.25531914893617 L 533.3333333333334 238.25531914893617 L 535.3333333333334 242.25531914893617 z"/>
<circle fill="black" cy="203.2127659574468" cx="533.3333333333334" r="1" id="148"/>
<path d="M 533.3333333333334 340 L 533.3333333333334 91.06382978723406" fill="none" stroke="blue" stroke-width="0.5"/>
<path fill="red" id="149" d="M 534.6666666666667 242.25531914893617 L 536.6666666666667 238.25531914893617 L 538.6666666666667 242.25531914893617 z"/>
<circle fill="black" cy="202.06382978723406" cx="536.6666666666667" r="1" id="149"/>
<path d="M 536.6666666666667 340 L 536.6666666666667 91.06382978723406" fill="none" stroke="blue" stroke-width="0.5"/>
</svg>
